PathFileType	4	(X/Y/Z)	Walk6.trc
DataRate	CameraRate	NumFrames	NumMarkers	Units	OrigDataRate	OrigDataStartFrame	OrigNumFrames
200.000000	200.000000	4	59	mm	200.000000	264	500
Frame#	Times		LFHD		LBHD		C7		T10		RBack		LPSI		RPSI		RElbowM		RCAR		LUA1		LElbowM		LLFC		LCAR		RUA1		RFA1		RWRR		CLAV		LACR1		RTH3		RTB1		LWRU		RBHD		RACR1		RTB4		LFA1		LWRR		RTH2		RTB3		RToe		RElbow		RMT1		STRN		RWRU		RFHD		RTH4		RLFC		RCAL		RMT5		RTH1		RTB2		LTH3		LTH4		RMMAL		LTH1		LElbow		LTH2		LTB3		RLMAL		LTB2		RASI		LCAL		LMT1		LASI		LLMAL		LMT5		LToe		LTB1		LMMAL		LTB4
			X1	Y1	Z1	X2	Y2	Z2	X3	Y3	Z3	X4	Y4	Z4	X5	Y5	Z5	X6	Y6	Z6	X7	Y7	Z7	X8	Y8	Z8	X9	Y9	Z9	X10	Y10	Z10	X11	Y11	Z11	X12	Y12	Z12	X13	Y13	Z13	X14	Y14	Z14	X15	Y15	Z15	X16	Y16	Z16	X17	Y17	Z17	X18	Y18	Z18	X19	Y19	Z19	X20	Y20	Z20	X21	Y21	Z21	X22	Y22	Z22	X23	Y23	Z23	X24	Y24	Z24	X25	Y25	Z25	X26	Y26	Z26	X27	Y27	Z27	X28	Y28	Z28	X29	Y29	Z29	X30	Y30	Z30	X31	Y31	Z31	X32	Y32	Z32	X33	Y33	Z33	X34	Y34	Z34	X35	Y35	Z35	X36	Y36	Z36	X37	Y37	Z37	X38	Y38	Z38	X39	Y39	Z39	X40	Y40	Z40	X41	Y41	Z41	X42	Y42	Z42	X43	Y43	Z43	X44	Y44	Z44	X45	Y45	Z45	X46	Y46	Z46	X47	Y47	Z47	X48	Y48	Z48	X49	Y49	Z49	X50	Y50	Z50	X51	Y51	Z51	X52	Y52	Z52	X53	Y53	Z53	X54	Y54	Z54	X55	Y55	Z55	X56	Y56	Z56	X57	Y57	Z57	X58	Y58	Z58	X59	Y59	Z59

264	1.32	-144.79	1486.2	-47.213	-317.26	1493.7	-68.433	-349.04	1357	-4.9853	-378.6	1087.7	-8.7725	-383.69	1254.1	119.36	-407.78	905.09	-35.105	-408	901.63	63.942	-361.87	960.31	188.33	-266.25	744.09	331.02	-246.62	1121	-249.24	-303.7	963.53	-212.41	-323.12	451.62	-115.98	-95.529	754.31	-276.54	-297.54	1139.6	233.74	-333.76	873.79	287.47	-232.83	779.41	288.47	-225.92	1275.7	5.8328	-262.64	1292.6	-164.98	-167.76	559.58	173.22	-77.19	350.22	88.043	-149.13	780.52	-303.18	-317.56	1499.9	54.886	-287.47	1292.6	151.87	-81.528	258.82	90.661	-214.62	888.82	-294.4	-124.98	788.2	-235.52	-132.55	679.25	167.38	-71.087	165.83	90.654	51.374	67.086	119.42	-333.57	1000.5	271.49	-0.60552	78.037	94.681	-164.2	1170.6	5.036	-305.34	762.67	284.72	-138.4	1494	29.191	-198.8	648.33	194.34	-119.85	473.15	162.48	-156.68	45.281	94.145	-27.832	57.385	140.48	-230.99	731.04	218.87	-114.45	257.67	155.2	-277.56	556.11	-125.09	-262.41	647.15	-150.02	-91.092	87.685	52.498	-252.81	736.65	-178.85	-271.39	1003.3	-274.26	-203.86	654.52	-106.87	-347.59	159.62	-14.543	-106.59	78.671	131.35	-359.82	249.1	-92.424	-185.93	873.02	153.72	-457.8	35.899	-10.377	-302.47	49.724	-2.3809	-217.51	864.71	-143.3	-410.15	66.864	-52.692	-326.12	32.867	-58.062	-244.7	26.206	-11.569	-308.33	336.88	-32.802	-391.53	72.906	25.624	-335.82	249.54	-25.385
265	1.325	-138.85	1485.2	-47.037	-311.31	1492.7	-68.298	-343.29	1356.1	-4.97	-373.01	1086.7	-8.6431	-378.14	1253.2	119.26	-402.43	904.6	-34.485	-402.16	900.71	64.47	-357.57	959.59	188.63	-262.52	743.14	331.27	-240.19	1120.1	-249.15	-297.24	962.52	-212.73	-319.97	451.14	-115.93	-88.282	753.99	-276.47	-292.51	1138.7	233.85	-329.57	873.06	287.73	-228.98	778.41	288.73	-220.22	1274.7	5.8842	-256.82	1291.7	-164.95	-161.67	558.43	172.8	-68.456	350.59	86.943	-141.89	780.07	-303.2	-311.63	1498.9	55.028	-281.83	1291.6	151.9	-70.042	259.12	89.631	-207.72	888.16	-294.51	-117.93	787.74	-235.47	-126.57	678.15	167.07	-56.836	166.46	89.638	68.835	70.451	117	-328.95	999.76	271.72	16.306	80.172	92.818	-158.56	1169.5	5.0455	-301.53	761.83	284.96	-132.45	1492.9	29.356	-192.73	647.13	194.15	-113.58	472.14	161.67	-138.88	43.616	93.868	-9.9948	59.048	138.91	-223.85	729.79	218.54	-102.52	257.1	154.39	-273.9	555.4	-125.07	-258.33	646.36	-150.03	-74.839	87.65	51.581	-248.35	735.82	-178.88	-264.83	1002.4	-274.45	-199.63	653.44	-107.02	-346.6	159.29	-14.327	-89.373	78.329	130.52	-358.06	248.83	-92.259	-179.84	871.69	153.78	-457.72	36.178	-10.145	-302.36	49.655	-2.2161	-205.44	865.44	-143.96	-409.88	67.007	-52.508	-326.08	32.857	-57.924	-244.51	26.166	-11.579	-305.89	336.21	-32.651	-391.25	72.929	25.875	-334.11	249.08	-25.223
266	1.33	-132.91	1484.1	-46.849	-305.37	1491.7	-68.144	-337.54	1355.1	-4.9345	-367.4	1085.8	-8.5002	-372.6	1252.3	119.17	-397.03	904.09	-33.85	-396.28	899.76	65.019	-353.26	958.84	188.96	-258.72	742.19	331.53	-233.77	1119.2	-249.04	-290.8	961.5	-213.03	-316.79	450.64	-115.87	-81.081	753.64	-276.4	-287.48	1137.7	233.97	-325.32	872.3	288.02	-225.06	777.4	288.97	-214.51	1273.6	5.9546	-251	1290.7	-164.91	-155.69	557.21	172.43	-59.911	350.95	85.823	-134.69	779.59	-303.23	-305.71	1497.8	55.189	-276.2	1290.5	151.94	-58.784	259.49	88.583	-200.86	887.48	-294.6	-110.92	787.24	-235.41	-120.64	676.97	166.81	-42.869	167.23	88.571	85.946	73.972	114.36	-324.29	999.01	271.97	32.87	82.474	90.808	-152.91	1168.5	5.0648	-297.65	760.98	285.2	-126.51	1491.9	29.534	-186.71	645.88	194	-107.44	471.06	160.92	-121.36	42.214	93.626	7.5546	60.925	137.22	-216.82	728.51	218.25	-90.727	256.64	153.57	-270.2	554.67	-125.05	-254.23	645.56	-150.04	-58.923	87.802	50.64	-243.88	734.97	-178.91	-258.27	1001.6	-274.63	-195.37	652.35	-107.19	-345.6	158.96	-14.111	-72.39	78.222	129.65	-356.28	248.57	-92.085	-173.72	870.33	153.84	-457.63	36.488	-9.8997	-302.24	49.586	-2.0437	-193.35	866.16	-144.61	-409.59	67.163	-52.314	-326.05	32.852	-57.78	-244.33	26.123	-11.572	-303.42	335.53	-32.508	-390.96	72.966	26.136	-332.36	248.61	-25.062
267	1.335	-126.99	1483	-46.647	-299.44	1490.6	-67.97	-331.81	1354.2	-4.8774	-361.75	1084.8	-8.3439	-367.07	1251.4	119.09	-391.59	903.55	-33.198	-390.35	898.79	65.59	-348.92	958.08	189.32	-254.83	741.23	331.77	-227.34	1118.3	-248.92	-284.37	960.48	-213.33	-313.57	450.14	-115.79	-73.928	753.26	-276.34	-282.44	1136.8	234.12	-321.02	871.54	288.32	-221.07	776.4	289.2	-208.8	1272.6	6.046	-245.2	1289.8	-164.84	-149.8	555.94	172.12	-51.551	351.3	84.677	-127.54	779.1	-303.26	-299.8	1496.7	55.368	-270.56	1289.5	152.01	-47.764	259.91	87.516	-194.02	886.78	-294.69	-103.96	786.7	-235.35	-114.74	675.72	166.58	-29.206	168.11	87.455	102.67	77.617	111.51	-319.61	998.24	272.24	49.053	84.915	88.665	-147.23	1167.4	5.0959	-293.7	760.12	285.45	-120.58	1490.7	29.729	-180.74	644.59	193.89	-101.41	469.92	160.22	-104.14	41.06	93.426	24.779	62.991	135.41	-209.92	727.2	218.01	-79.084	256.28	152.75	-266.48	553.94	-125.01	-250.11	644.74	-150.05	-43.375	88.121	49.684	-239.4	734.1	-178.94	-251.72	1000.7	-274.79	-191.09	651.24	-107.36	-344.58	158.63	-13.895	-55.68	78.34	128.75	-354.49	248.3	-91.901	-167.55	868.96	153.9	-457.54	36.832	-9.6391	-302.12	49.519	-1.8656	-181.27	866.87	-145.25	-409.31	67.335	-52.106	-326.02	32.852	-57.629	-244.15	26.076	-11.553	-300.9	334.82	-32.37	-390.65	73.02	26.407	-330.59	248.14	-24.898
